<svg width="28" height="27" viewBox="0 0 28 27" fill="none" xmlns="http://www.w3.org/2000/svg">
<g clip-path="url(#clip0_422_392)">
<path d="M14 17.1C15.9882 17.1 17.6 15.4882 17.6 13.5C17.6 11.5118 15.9882 9.90002 14 9.90002C12.0118 9.90002 10.4 11.5118 10.4 13.5C10.4 15.4882 12.0118 17.1 14 17.1Z" fill="white"/>
<path d="M10.625 2.25L8.56625 4.5H5C3.7625 4.5 2.75 5.5125 2.75 6.75V20.25C2.75 21.4875 3.7625 22.5 5 22.5H23C24.2375 22.5 25.25 21.4875 25.25 20.25V6.75C25.25 5.5125 24.2375 4.5 23 4.5H19.4337L17.375 2.25H10.625ZM14 19.125C10.895 19.125 8.375 16.605 8.375 13.5C8.375 10.395 10.895 7.875 14 7.875C17.105 7.875 19.625 10.395 19.625 13.5C19.625 16.605 17.105 19.125 14 19.125Z" fill="white"/>
</g>
<defs>
<clipPath id="clip0_422_392">
<rect width="27" height="27" fill="white" transform="translate(0.5)"/>
</clipPath>
</defs>
</svg>
