<svg width="30" height="31" viewBox="0 0 30 31" fill="none" xmlns="http://www.w3.org/2000/svg">
<path fill-rule="evenodd" clip-rule="evenodd" d="M10.2 22.9727C8.88001 22.9727 7.81201 24.0527 7.81201 25.3727C7.81201 26.6927 8.88001 27.7727 10.2 27.7727C11.52 27.7727 12.6 26.6927 12.6 25.3727C12.6 24.0527 11.52 22.9727 10.2 22.9727ZM3 3.77271V6.17271H5.4L9.72 15.2807L8.1 18.2207C7.908 18.5567 7.8 18.9527 7.8 19.3727C7.8 20.6927 8.88 21.7727 10.2 21.7727H24.6V19.3727H10.704C10.536 19.3727 10.404 19.2407 10.404 19.0727L10.44 18.9287L11.52 16.9727H20.46C21.36 16.9727 22.152 16.4807 22.56 15.7367L26.856 7.94871C27.0574 7.57616 27.0482 7.12518 26.8318 6.76117C26.6153 6.39716 26.2235 6.17368 25.8 6.17271H8.052L6.924 3.77271H3ZM22.2 22.9727C20.88 22.9727 19.812 24.0527 19.812 25.3727C19.812 26.6927 20.88 27.7727 22.2 27.7727C23.52 27.7727 24.6 26.6927 24.6 25.3727C24.6 24.0527 23.52 22.9727 22.2 22.9727Z" fill="black"/>
</svg>
