<svg width="30" height="31" viewBox="0 0 30 31" fill="none" xmlns="http://www.w3.org/2000/svg">
<path d="M3 6.17271H2.5V6.67271H3V6.17271ZM5.4 6.17271L5.85176 5.95843L5.71624 5.67271H5.4V6.17271ZM9.72 15.2807L10.1579 15.522L10.2815 15.2978L10.1718 15.0664L9.72 15.2807ZM8.1 18.2207L8.53417 18.4688L8.53792 18.462L8.1 18.2207ZM24.6 21.7727V22.2727H25.1V21.7727H24.6ZM24.6 19.3727H25.1V18.8727H24.6V19.3727ZM10.404 19.0727L9.91893 18.9514L9.904 19.0112V19.0727H10.404ZM10.44 18.9287L10.0023 18.687L9.97075 18.7441L9.95493 18.8074L10.44 18.9287ZM11.52 16.9727V16.4727H11.2249L11.0823 16.731L11.52 16.9727ZM22.56 15.7367L22.1222 15.4952L22.1216 15.4963L22.56 15.7367ZM26.856 7.94871L27.2938 8.19022L27.2958 8.18649L26.856 7.94871ZM25.8 6.17271L25.8012 5.67271H25.8V6.17271ZM8.052 6.17271L7.59949 6.38539L7.73453 6.67271H8.052V6.17271ZM6.924 3.77271L7.37651 3.56002L7.24147 3.27271H6.924V3.77271ZM10.2 22.4727C8.60061 22.4727 7.31201 23.7798 7.31201 25.3727H8.31201C8.31201 24.3256 9.15941 23.4727 10.2 23.4727V22.4727ZM7.31201 25.3727C7.31201 26.9656 8.60061 28.2727 10.2 28.2727V27.2727C9.15941 27.2727 8.31201 26.4198 8.31201 25.3727H7.31201ZM10.2 28.2727C11.7962 28.2727 13.1 26.9688 13.1 25.3727H12.1C12.1 26.4166 11.2439 27.2727 10.2 27.2727V28.2727ZM13.1 25.3727C13.1 23.7766 11.7962 22.4727 10.2 22.4727V23.4727C11.2439 23.4727 12.1 24.3288 12.1 25.3727H13.1ZM2.5 3.77271V6.17271H3.5V3.77271H2.5ZM3 6.67271H5.4V5.67271H3V6.67271ZM4.94824 6.38698L9.26824 15.495L10.1718 15.0664L5.85176 5.95843L4.94824 6.38698ZM9.28208 15.0394L7.66208 17.9794L8.53792 18.462L10.1579 15.522L9.28208 15.0394ZM7.66588 17.9726C7.43007 18.3853 7.3 18.867 7.3 19.3727H8.3C8.3 19.0384 8.38593 18.7281 8.53412 18.4688L7.66588 17.9726ZM7.3 19.3727C7.3 20.9688 8.60386 22.2727 10.2 22.2727V21.2727C9.15614 21.2727 8.3 20.4166 8.3 19.3727H7.3ZM10.2 22.2727H24.6V21.2727H10.2V22.2727ZM25.1 21.7727V19.3727H24.1V21.7727H25.1ZM24.6 18.8727H10.704V19.8727H24.6V18.8727ZM10.704 18.8727C10.8121 18.8727 10.904 18.9646 10.904 19.0727H9.904C9.904 19.5168 10.2599 19.8727 10.704 19.8727V18.8727ZM10.8891 19.194L10.9251 19.05L9.95493 18.8074L9.91893 18.9514L10.8891 19.194ZM10.8777 19.1704L11.9577 17.2144L11.0823 16.731L10.0023 18.687L10.8777 19.1704ZM11.52 17.4727H20.46V16.4727H11.52V17.4727ZM20.46 17.4727C21.5457 17.4727 22.5041 16.8785 22.9984 15.9771L22.1216 15.4963C21.7999 16.0829 21.1744 16.4727 20.46 16.4727V17.4727ZM22.9978 15.9782L27.2938 8.19021L26.4182 7.7072L22.1222 15.4952L22.9978 15.9782ZM27.2958 8.18649C27.5809 7.65919 27.5679 7.02087 27.2615 6.50563L26.402 7.01671C26.5285 7.2295 26.5339 7.49314 26.4162 7.71092L27.2958 8.18649ZM27.2615 6.50563C26.9552 5.9904 26.4006 5.67409 25.8012 5.67271L25.7988 6.6727C26.0464 6.67327 26.2755 6.80391 26.402 7.01671L27.2615 6.50563ZM25.8 5.67271H8.052V6.67271H25.8V5.67271ZM8.50451 5.96002L7.37651 3.56002L6.47149 3.98539L7.59949 6.38539L8.50451 5.96002ZM6.924 3.27271H3V4.27271H6.924V3.27271ZM22.2 22.4727C20.6006 22.4727 19.312 23.7798 19.312 25.3727H20.312C20.312 24.3256 21.1594 23.4727 22.2 23.4727V22.4727ZM19.312 25.3727C19.312 26.9656 20.6006 28.2727 22.2 28.2727V27.2727C21.1594 27.2727 20.312 26.4198 20.312 25.3727H19.312ZM22.2 28.2727C23.7962 28.2727 25.1 26.9688 25.1 25.3727H24.1C24.1 26.4166 23.2439 27.2727 22.2 27.2727V28.2727ZM25.1 25.3727C25.1 23.7766 23.7962 22.4727 22.2 22.4727V23.4727C23.2439 23.4727 24.1 24.3288 24.1 25.3727H25.1Z" fill="#939393"/>
</svg>
