<svg width="26" height="24" viewBox="0 0 26 24" fill="none" xmlns="http://www.w3.org/2000/svg">
<path fill-rule="evenodd" clip-rule="evenodd" d="M2.81601 5.25C2.81601 4.69772 3.28402 4.25 3.86134 4.25H22.6773C23.2547 4.25 23.7227 4.69772 23.7227 5.25V18.75C23.7227 19.3023 23.2547 19.75 22.6773 19.75H3.86134C3.28402 19.75 2.81601 19.3023 2.81601 18.75V5.25ZM4.90668 6.25V17.75H21.632V6.25H4.90668Z" fill="black"/>
<path fill-rule="evenodd" clip-rule="evenodd" d="M3.06765 4.59923C3.44336 4.17991 4.10328 4.13134 4.54162 4.49075L13.2693 11.6471L21.997 4.49075C22.4354 4.13134 23.0953 4.17991 23.471 4.59923C23.8467 5.01856 23.796 5.64986 23.3576 6.00928L13.9496 13.7234C13.5582 14.0444 12.9805 14.0444 12.589 13.7234L3.18105 6.00928C2.74271 5.64986 2.69194 5.01856 3.06765 4.59923Z" fill="black"/>
</svg>
