<svg width="24" height="24" viewBox="0 0 24 24" fill="none" xmlns="http://www.w3.org/2000/svg">
<path d="M12 4C14.2333 4 16.125 4.775 17.675 6.325C19.225 7.875 20 9.76667 20 12C20 14.2333 19.225 16.125 17.675 17.675C16.125 19.225 14.2333 20 12 20C9.76667 20 7.875 19.225 6.325 17.675C4.775 16.125 4 14.2333 4 12C4 9.76667 4.775 7.875 6.325 6.325C7.875 4.775 9.76667 4 12 4ZM12 15.5C12.8 15.5 13.5167 15.271 14.15 14.813C14.7833 14.355 15.2333 13.7507 15.5 13H8.5C8.76667 13.75 9.21667 14.3543 9.85 14.813C10.4833 15.2717 11.2 15.5007 12 15.5ZM8.5 10C8.5 10.2833 8.596 10.521 8.788 10.713C8.98 10.905 9.21733 11.0007 9.5 11C9.78333 11 10.021 10.904 10.213 10.712C10.405 10.52 10.5007 10.2827 10.5 10C10.5 9.71667 10.404 9.47933 10.212 9.288C10.02 9.09667 9.78267 9.00067 9.5 9C9.21667 9 8.97933 9.096 8.788 9.288C8.59667 9.48 8.50067 9.71733 8.5 10ZM13.5 10C13.5 10.2833 13.596 10.521 13.788 10.713C13.98 10.905 14.2173 11.0007 14.5 11C14.7833 11 15.021 10.904 15.213 10.712C15.405 10.52 15.5007 10.2827 15.5 10C15.5 9.71667 15.404 9.47933 15.212 9.288C15.02 9.09667 14.7827 9.00067 14.5 9C14.2167 9 13.9793 9.096 13.788 9.288C13.5967 9.48 13.5007 9.71733 13.5 10ZM1 6V1H6V3H3V6H1ZM1 23V18H3V21H6V23H1ZM18 23V21H21V18H23V23H18ZM21 6V3H18V1H23V6H21Z" fill="black"/>
</svg>
