<svg width="28" height="29" viewBox="0 0 28 29" fill="none" xmlns="http://www.w3.org/2000/svg">
<path fill-rule="evenodd" clip-rule="evenodd" d="M13.7212 24.8294C11.1888 23.2709 8.83297 21.4366 6.69584 19.3594C5.19335 17.8634 4.04951 16.0397 3.35195 14.028C2.09667 10.1254 3.56292 5.65763 7.66631 4.33544C9.82289 3.64117 12.1782 4.03798 13.9954 5.40172C15.8134 4.03964 18.1679 3.64297 20.3246 4.33544C24.428 5.65763 25.9048 10.1254 24.6495 14.028C23.9519 16.0397 22.8081 17.8634 21.3056 19.3594C19.1685 21.4366 16.8126 23.2709 14.2803 24.8294L14.006 25L13.7212 24.8294Z" stroke="#939393" stroke-width="1.5" stroke-linecap="round" stroke-linejoin="round"/>
<path d="M18.3625 8.72852C19.6054 9.12553 20.4885 10.2413 20.5988 11.5542" stroke="#939393" stroke-width="1.5" stroke-linecap="round" stroke-linejoin="round"/>
</svg>
