<svg width="24" height="21" viewBox="0 0 24 21" fill="none" xmlns="http://www.w3.org/2000/svg">
<path fill-rule="evenodd" clip-rule="evenodd" d="M11.7212 20.8294C9.1888 19.2709 6.83297 17.4366 4.69584 15.3594C3.19335 13.8634 2.04951 12.0397 1.35195 10.028C0.0966728 6.12536 1.56292 1.65763 5.66631 0.33544C7.82289 -0.358826 10.1782 0.0379779 11.9954 1.40172C13.8134 0.0396388 16.1679 -0.357026 18.3246 0.33544C22.428 1.65763 23.9048 6.12536 22.6495 10.028C21.9519 12.0397 20.8081 13.8634 19.3056 15.3594C17.1685 17.4366 14.8126 19.2709 12.2803 20.8294L12.006 21L11.7212 20.8294Z" fill="black"/>
<path d="M16.3625 4.72852C17.6054 5.12553 18.4885 6.24133 18.5988 7.55416" stroke="black" stroke-width="1.5" stroke-linecap="round" stroke-linejoin="round"/>
</svg>
