<svg width="29" height="29" viewBox="0 0 29 29" fill="none" xmlns="http://www.w3.org/2000/svg">
<path fill-rule="evenodd" clip-rule="evenodd" d="M11.1834 24.7333V21.1555C11.1834 20.2455 11.9253 19.506 12.8445 19.4999H16.2116C17.1352 19.4999 17.8839 20.2411 17.8839 21.1555V24.7445C17.8837 25.5171 18.5066 26.1486 19.2869 26.1667H21.5316C23.7693 26.1667 25.5833 24.3708 25.5833 22.1555V11.9775C25.5714 11.106 25.158 10.2876 24.461 9.75525L16.784 3.63289C15.4391 2.56687 13.5272 2.56687 12.1823 3.63289L4.53902 9.76636C3.83929 10.2966 3.42527 11.1163 3.41666 11.9886V22.1555C3.41666 24.3708 5.23068 26.1667 7.46839 26.1667H9.71311C10.5127 26.1667 11.161 25.525 11.161 24.7333" fill="black"/>
<path d="M11.1834 24.7333V21.1555C11.1834 20.2455 11.9253 19.506 12.8445 19.4999H16.2116C17.1352 19.4999 17.8839 20.2411 17.8839 21.1555V21.1555V24.7445C17.8837 25.5171 18.5066 26.1486 19.2869 26.1667H21.5316C23.7693 26.1667 25.5833 24.3708 25.5833 22.1555V22.1555V11.9775C25.5714 11.106 25.158 10.2876 24.461 9.75525L16.784 3.63289C15.4391 2.56687 13.5272 2.56687 12.1823 3.63289L4.53902 9.76636C3.83929 10.2966 3.42527 11.1163 3.41666 11.9886V22.1555C3.41666 24.3708 5.23068 26.1667 7.46839 26.1667H9.71311C10.5127 26.1667 11.161 25.525 11.161 24.7333V24.7333" stroke="black" stroke-width="1.5" stroke-linecap="round" stroke-linejoin="round"/>
</svg>
