<svg width="29" height="29" viewBox="0 0 29 29" fill="none" xmlns="http://www.w3.org/2000/svg">
<path d="M11.1834 24.7332V21.1554C11.1834 20.2453 11.9253 19.5059 12.8445 19.4998H16.2116C17.1352 19.4998 17.8839 20.241 17.8839 21.1554V21.1554V24.7443C17.8837 25.517 18.5066 26.1485 19.2869 26.1666H21.5316C23.7693 26.1666 25.5833 24.3707 25.5833 22.1554V22.1554V11.9774C25.5714 11.1059 25.158 10.2875 24.461 9.75512L16.784 3.63277C15.4391 2.56675 13.5272 2.56675 12.1823 3.63277L4.53902 9.76623C3.83929 10.2964 3.42527 11.1162 3.41666 11.9885V22.1554C3.41666 24.3707 5.23068 26.1666 7.46839 26.1666H9.71311C10.5127 26.1666 11.161 25.5248 11.161 24.7332V24.7332" stroke="#939393" stroke-width="1.5" stroke-linecap="round" stroke-linejoin="round"/>
</svg>
