<svg width="26" height="24" viewBox="0 0 26 24" fill="none" xmlns="http://www.w3.org/2000/svg">
<path fill-rule="evenodd" clip-rule="evenodd" d="M2.81601 9.75C2.81601 9.19772 3.28402 8.75 3.86134 8.75H22.6773C23.2547 8.75 23.7227 9.19772 23.7227 9.75V21C23.7227 21.5523 23.2547 22 22.6773 22H3.86134C3.28402 22 2.81601 21.5523 2.81601 21V9.75ZM4.90668 10.75V20H21.632V10.75H4.90668Z" fill="black"/>
<path fill-rule="evenodd" clip-rule="evenodd" d="M13.2693 4C10.6365 4 8.43466 6.13206 8.43466 8.841C8.43466 9.39328 7.96665 9.841 7.38933 9.841C6.81201 9.841 6.34399 9.39328 6.34399 8.841C6.34399 5.09919 9.40829 2 13.2693 2C17.1304 2 20.1947 5.09919 20.1947 8.841C20.1947 9.39328 19.7266 9.841 19.1493 9.841C18.572 9.841 18.104 9.39328 18.104 8.841C18.104 6.13206 15.9022 4 13.2693 4Z" fill="black"/>
<path fill-rule="evenodd" clip-rule="evenodd" d="M13.2693 13.7256C13.8467 13.7256 14.3147 14.1733 14.3147 14.7256V15.8506C14.3147 16.4029 13.8467 16.8506 13.2693 16.8506C12.692 16.8506 12.224 16.4029 12.224 15.8506V14.7256C12.224 14.1733 12.692 13.7256 13.2693 13.7256Z" fill="black"/>
</svg>
