<svg width="30" height="32" viewBox="0 0 30 32" fill="none" xmlns="http://www.w3.org/2000/svg">
<path d="M15.1408 27.5L15.1408 27H15.1408L15.1408 27.5ZM5 22.0577L4.50006 22.0502L4.49772 22.205L4.58334 22.3341L5 22.0577ZM25.2817 22.0577L25.6984 22.3341L25.784 22.205L25.7816 22.0502L25.2817 22.0577ZM15.1408 4C17.6703 4 19.7113 6.04093 19.7113 8.57042H20.7113C20.7113 5.48865 18.2226 3 15.1408 3V4ZM19.7113 8.57042C19.7113 11.0999 17.6703 13.1408 15.1408 13.1408V14.1408C18.2226 14.1408 20.7113 11.6522 20.7113 8.57042H19.7113ZM15.1408 13.1408C12.6113 13.1408 10.5704 11.0999 10.5704 8.57042H9.57041C9.57041 11.6522 12.0591 14.1408 15.1408 14.1408V13.1408ZM10.5704 8.57042C10.5704 6.04093 12.6113 4 15.1408 4V3C12.0591 3 9.57041 5.48865 9.57041 8.57042H10.5704ZM15.1408 27C11.2297 27 7.57865 25.0406 5.41666 21.7813L4.58334 22.3341C6.9306 25.8727 10.8945 28 15.1408 28L15.1408 27ZM5.49994 22.0653C5.50991 21.404 5.84489 20.7784 6.47245 20.1902C7.10211 19.6002 7.99222 19.0826 9.01476 18.6549C11.0619 17.7987 13.519 17.3521 15.1408 17.3521V16.3521C13.3824 16.3521 10.7945 16.8266 8.6289 17.7324C7.5451 18.1857 6.53697 18.7593 5.78865 19.4606C5.0382 20.1638 4.51544 21.0297 4.50006 22.0502L5.49994 22.0653ZM15.1408 17.3521C16.7541 17.3521 19.2113 17.7986 21.2608 18.655C22.2845 19.0827 23.1762 19.6004 23.8072 20.1906C24.4362 20.7789 24.7718 21.4045 24.7817 22.0653L25.7816 22.0502C25.7662 21.0293 25.242 20.1633 24.4903 19.4603C23.7407 18.7591 22.731 18.1855 21.6463 17.7323C19.4789 16.8267 16.891 16.3521 15.1408 16.3521V17.3521ZM24.865 21.7813C22.703 25.0406 19.052 27 15.1408 27L15.1408 28C19.3872 28 23.3511 25.8727 25.6984 22.3341L24.865 21.7813Z" fill="#939393"/>
</svg>
